<svg aria-hidden="true" style="position: absolute; width: 0; height: 0; overflow: hidden;" version="1.1" xmlns="http://www.w3.org/2000/svg" xmlns:xlink="http://www.w3.org/1999/xlink">
<defs>
<symbol id="icon-antenna" viewBox="0 0 72 32">
<path fill="#f5f4fa" style="fill: var(--color1, #f5f4fa)" d="M1.067 0h69.867c0.589 0 1.067 0.478 1.067 1.067v29.867c0 0.589-0.478 1.067-1.067 1.067h-69.867c-0.589 0-1.067-0.478-1.067-1.067v-29.867c0-0.589 0.478-1.067 1.067-1.067z"></path>
<path fill="#212121" style="fill: var(--color2, #212121)" d="M44.616 19.555l-4.925-4.96 0.547-2.693c0.141 0.056 0.291 0.085 0.443 0.085h0.005c0.004 0 0.010 0 0.015 0 0.695 0 1.259-0.564 1.259-1.259 0-0.69-0.555-1.25-1.243-1.259h-0.001c-0.005-0-0.011-0-0.017-0-0.689 0-1.249 0.555-1.258 1.242v0.001c-0.003 0.149 0.021 0.299 0.072 0.437l-2.893 0.355-4.72-4.744c-0.056-0.061-0.136-0.093-0.219-0.093s-0.16 0.032-0.219 0.088l-0.883 0.877c-0.12 0.123-0.12 0.32 0 0.44l0.475 0.483c-1.837 3.381-1.24 7.571 1.472 10.304 0.024 0.024 0.053 0.043 0.085 0.056-0.021 0.107-0.032 0.213-0.032 0.32v3.608h-3.733c-0.859 0.002-1.554 0.698-1.555 1.557v0.621c0 0.171 0.139 0.312 0.309 0.312h14.312c0.173 0 0.312-0.141 0.312-0.312v-0.621c-0.003-0.859-0.698-1.554-1.557-1.557h-3.734v-1.6c0.587 0.123 1.181 0.187 1.779 0.187 1.435 0 2.845-0.357 4.107-1.040l0.477 0.48c0.059 0.059 0.139 0.093 0.221 0.093 0.080 0 0.16-0.032 0.216-0.091l0.883-0.877c0.123-0.12 0.123-0.317 0-0.44zM40.245 10.301c0.243-0.243 0.637-0.24 0.88 0.003s0.24 0.637-0.003 0.88c-0.117 0.115-0.275 0.181-0.44 0.181-0.342-0.002-0.619-0.28-0.619-0.623 0-0.001 0-0.003 0-0.004v0c0-0.163 0.067-0.323 0.181-0.437zM39.512 12.347l-0.349 1.717-0.685-0.691 1.035-1.027zM39.16 11.819l-1.12 1.115-0.867-0.872 1.987-0.243zM40.667 23.467c0.517 0 0.933 0.416 0.933 0.933v0.309h-13.688v-0.309c0-0.517 0.419-0.933 0.933-0.933h11.821zM36.312 22.221v0.621h-3.112v-0.621h3.112zM33.2 21.6v-2.365c0-0.755 0.699-1.368 1.557-1.368 0.856 0 1.555 0.613 1.555 1.368v2.365h-3.112zM36.933 20.611v-1.376c0-1.099-0.976-1.992-2.176-1.992-0.010-0-0.021-0-0.032-0-0.79 0-1.484 0.412-1.877 1.034l-0.005 0.009c-1.376-1.447-2.223-3.409-2.223-5.569 0-1.35 0.331-2.623 0.916-3.742l-0.021 0.045 10.851 10.912c-1.677 0.853-3.597 1.093-5.432 0.68zM43.52 20.211l-12.283-12.355 0.44-0.44 4.627 4.656c0.003 0 0.005 0.003 0.008 0.005l7.648 7.693-0.44 0.44z"></path>
<path fill="#2196f3" style="fill: var(--color3, #2196f3)" d="M34.76 18.488h-0.003c-0 0-0.001 0-0.001 0-0.515 0-0.933 0.418-0.933 0.933s0.417 0.933 0.932 0.933h0.003c0.515 0 0.933-0.416 0.933-0.933 0.003-0.515-0.416-0.933-0.931-0.933zM34.976 19.643c-0.056 0.056-0.136 0.091-0.219 0.091-0.173-0.003-0.312-0.141-0.309-0.315 0-0.083 0.032-0.16 0.091-0.219 0.059-0.056 0.136-0.091 0.219-0.091 0.171 0.003 0.309 0.141 0.309 0.312 0 0.083-0.035 0.163-0.093 0.221h0.003z"></path>
</symbol>
<symbol id="icon-astronaut" viewBox="0 0 72 32">
<path fill="#f5f4fa" style="fill: var(--color1, #f5f4fa)" d="M1.067 0h69.867c0.589 0 1.067 0.478 1.067 1.067v29.867c0 0.589-0.478 1.067-1.067 1.067h-69.867c-0.589 0-1.067-0.478-1.067-1.067v-29.867c0-0.589 0.478-1.067 1.067-1.067z"></path>
<path fill="#2196f3" style="fill: var(--color3, #2196f3)" d="M45.317 9.304c-0.037-0.112-0.133-0.195-0.251-0.211l-1.115-0.163-0.499-1.011c-0.104-0.211-0.453-0.211-0.557 0l-0.499 1.011-1.115 0.163c-0.117 0.016-0.216 0.099-0.253 0.211-0.035 0.112-0.005 0.237 0.080 0.32l0.805 0.787-0.189 1.109c-0.003 0.016-0.004 0.034-0.004 0.053 0 0.172 0.139 0.311 0.311 0.311 0.053 0 0.102-0.013 0.146-0.036l-0.002 0.001 0.997-0.525 0.997 0.525c0.045 0.024 0.096 0.035 0.144 0.035 0.001 0 0.002 0 0.003 0 0.17 0 0.309-0.138 0.309-0.309 0-0.019-0.002-0.038-0.005-0.056l0 0.002-0.189-1.109 0.805-0.787c0.085-0.083 0.117-0.208 0.080-0.32zM43.88 10.077c-0.072 0.072-0.107 0.176-0.088 0.277l0.109 0.648-0.581-0.307c-0.048-0.024-0.096-0.035-0.147-0.035s-0.099 0.011-0.144 0.035l-0.584 0.307 0.112-0.648c0.016-0.101-0.016-0.205-0.091-0.277l-0.472-0.459 0.653-0.096c0.101-0.013 0.189-0.077 0.235-0.171l0.291-0.589 0.291 0.589c0.045 0.093 0.133 0.157 0.235 0.171l0.653 0.096-0.472 0.459z"></path>
<path fill="#2196f3" style="fill: var(--color3, #2196f3)" d="M41.288 18.637h0.621v0.621h-0.621v-0.621zM41.288 19.88h0.621v0.624h-0.621v-0.624zM41.909 19.259h0.624v0.621h-0.624v-0.621zM40.667 19.259h0.621v0.621h-0.621v-0.621zM39.109 22.059h0.624v0.621h-0.624v-0.621zM39.109 23.304h0.624v0.621h-0.624v-0.621zM39.733 22.68h0.621v0.624h-0.621v-0.624zM38.488 22.68h0.621v0.624h-0.621v-0.624zM35.376 20.813h0.624v0.624h-0.624v-0.624zM35.376 22.059h0.624v0.621h-0.624v-0.621zM36 21.437h0.621v0.621h-0.621v-0.621zM34.755 21.437h0.621v0.621h-0.621v-0.621zM29.467 10.237h0.621v0.621h-0.621v-0.621zM29.467 11.48h0.621v0.624h-0.621v-0.624zM30.088 10.859h0.621v0.621h-0.621v-0.621zM28.843 10.859h0.624v0.621h-0.624v-0.621z"></path>
<path fill="#212121" style="fill: var(--color2, #212121)" d="M41.083 14.925c-0.168-0.227-0.413-0.373-0.693-0.411-0.28-0.040-0.557 0.032-0.781 0.205l-0.731 0.56-1.107 0.827-0.792-0.317c1.411-0.632 2.4-2.045 2.4-3.685 0-2.229-1.821-4.045-4.061-4.045s-4.061 1.816-4.061 4.045c0 0.808 0.243 1.56 0.653 2.192l-1.613-0.013c-0.005 0-0.011 0.003-0.016 0.003-0.029 0-0.059 0.008-0.091 0.019-0.005 0.003-0.013 0.003-0.021 0.008-0.003 0-0.008 0-0.011 0.003l-1.888 0.931-1.104 0.531c-0.011 0.005-0.024 0.013-0.037 0.021-0.28 0.188-0.462 0.504-0.462 0.863 0 0.174 0.043 0.338 0.118 0.482l-0.003-0.006c0.176 0.34 0.526 0.568 0.928 0.568h0c0.171 0 0.339-0.043 0.491-0.123l0.811-0.432 1.32-0.683 0.792-0.003-3.957 3.936c-0.184 0.184-0.285 0.427-0.285 0.688 0 0.259 0.101 0.504 0.285 0.688 0.177 0.175 0.42 0.283 0.688 0.283s0.511-0.108 0.688-0.283l-0 0 0.768-0.765 1.016-0.757 0.525 0.523-1.811 1.803c-0.184 0.184-0.285 0.427-0.285 0.688 0 0.259 0.101 0.501 0.285 0.685 0.189 0.189 0.44 0.285 0.688 0.285 0.251 0 0.499-0.096 0.688-0.285l0.781-0.776 1.251-1.245 0.589-0.584-0.003-0.003c0.005-0.003 0.011-0.005 0.013-0.008l3.013-3.301 2.024 0.288c0.016 0.003 0.029 0.003 0.045 0.003 0.037 0 0.075-0.008 0.109-0.021 0.011-0.005 0.019-0.008 0.029-0.013l0.032-0.016 1.875-1.245c0.008-0.005 0.011-0.011 0.019-0.016 0.005-0.008 0.016-0.008 0.021-0.016l0.744-0.693c0.202-0.19 0.327-0.46 0.327-0.758 0-0.234-0.077-0.449-0.207-0.623l0.002 0.003zM27.909 17.032c-0.058 0.031-0.126 0.049-0.199 0.049-0.163 0-0.304-0.091-0.376-0.225l-0.001-0.002c-0.093-0.184-0.040-0.405 0.125-0.528l0.765-0.368 0.187 0.539 0.077 0.227-0.579 0.309zM29.949 15.965l-0.904 0.467-0.149-0.435-0.107-0.315 1.181-0.584-0.021 0.867zM38.757 12.104c0 0.536-0.128 1.040-0.349 1.493l-2.44-1.109c-0.027-0.333-0.2-0.627-0.461-0.808l0.856-2.837c1.387 0.443 2.395 1.736 2.395 3.261zM31.88 12.104c0-1.888 1.541-3.424 3.437-3.424 0.147 0 0.291 0.013 0.435 0.032l-0.835 2.773c-0.011 0-0.021-0.005-0.035-0.005-0.6 0-1.091 0.491-1.091 1.091s0.491 1.088 1.091 1.088c0.405 0 0.755-0.224 0.944-0.552l2.253 1.024c-0.627 0.845-1.629 1.395-2.763 1.395-1.896 0-3.437-1.536-3.437-3.421zM35.355 12.571c0 0.256-0.213 0.467-0.472 0.467s-0.469-0.211-0.469-0.467c0-0.259 0.211-0.467 0.469-0.467s0.472 0.208 0.472 0.467zM28.104 21.333c-0.139 0.136-0.363 0.136-0.499 0-0.064-0.062-0.104-0.148-0.104-0.244 0-0 0-0.001 0-0.001v0c0-0.093 0.037-0.181 0.104-0.245l0.56-0.56 0.496 0.493-0.557 0.557zM29.979 23.512c-0.139 0.136-0.363 0.136-0.499 0-0.067-0.067-0.104-0.155-0.104-0.245 0-0.093 0.037-0.181 0.104-0.248l0.56-0.557 0.499 0.493-0.56 0.557zM32.008 21.488l-1.029 1.027-0.235-0.232-0.261-0.261 1.027-1.024h0.003c0.021-0.024 0.037-0.053 0.051-0.080 0.005-0.008 0.013-0.016 0.016-0.024 0.011-0.024 0.011-0.048 0.016-0.075 0-0.013 0.008-0.027 0.008-0.043 0-0.021-0.008-0.040-0.013-0.061-0.003-0.019-0.003-0.037-0.011-0.056-0.011-0.029-0.032-0.053-0.053-0.080-0.005-0.005-0.008-0.016-0.013-0.021-0.003 0-0.003 0-0.003-0.003l-0.936-0.933c-0.011-0.008-0.024-0.013-0.035-0.021-0.016-0.013-0.032-0.024-0.051-0.035-0.019-0.008-0.035-0.013-0.053-0.019-0.021-0.005-0.040-0.008-0.061-0.011-0.019 0-0.037 0-0.056 0.003-0.021 0.003-0.040 0.005-0.059 0.011-0.021 0.008-0.037 0.016-0.056 0.027-0.011 0.008-0.024 0.011-0.035 0.019l-1.035 0.771-0.525-0.523 1.397-1.392 2.544 2.501-0.541 0.536zM35.987 17.395c-0.008 0-0.019 0.003-0.027 0.003-0.021-0.003-0.045 0-0.067 0.003-0.019 0.003-0.035 0.008-0.051 0.013-0.021 0.008-0.040 0.016-0.056 0.027-0.019 0.011-0.035 0.021-0.051 0.037-0.005 0.005-0.016 0.008-0.024 0.016l-2.739 3.003-2.525-2.483 1.653-1.645c0.056-0.056 0.091-0.134 0.091-0.22 0-0.172-0.139-0.311-0.311-0.311-0.001 0-0.001 0-0.002 0l-1.296 0.008 0.016-0.939 1.811 0.016c0.739 0.755 1.768 1.224 2.907 1.224 0.256 0 0.504-0.027 0.747-0.069 0.024 0.019 0.045 0.037 0.075 0.048l1.408 0.56 0.088 0.443 0.104 0.517-1.752-0.251zM38.344 17.499l-0.181-0.909 0.843-0.629 0.221 0.293 0.331 0.44-1.213 0.805zM40.533 15.848l-0.488 0.459-0.544-0.723 0.485-0.371c0.091-0.069 0.205-0.099 0.317-0.083 0.205 0.028 0.361 0.202 0.361 0.413 0 0.12-0.051 0.228-0.132 0.304l-0 0z"></path>
<path fill="#212121" style="fill: var(--color2, #212121)" d="M34.6 17.483l-1.251-1.245c-0.12-0.12-0.317-0.12-0.437 0l-1.251 1.245c-0.059 0.059-0.091 0.139-0.091 0.221s0.032 0.163 0.091 0.219l1.251 1.245c0.059 0.061 0.139 0.091 0.219 0.091s0.16-0.029 0.219-0.091l1.251-1.245c0.059-0.056 0.091-0.136 0.091-0.219s-0.032-0.163-0.091-0.221zM33.131 18.509l-0.808-0.805 0.808-0.805 0.808 0.805-0.808 0.805zM36.677 9.624l-0.149 0.603c0.040 0.011 1.013 0.264 1.013 1.253h0.621c0-1.176-0.971-1.728-1.485-1.856z"></path>
<path fill="#212121" style="fill: var(--color2, #212121)" d="M37.541 12.104h0.621v0.621h-0.621v-0.621z"></path>
</symbol>
<symbol id="icon-clock" viewBox="0 0 72 32">
<path fill="#f5f4fa" style="fill: var(--color1, #f5f4fa)" d="M1.067 0h69.867c0.589 0 1.067 0.478 1.067 1.067v29.867c0 0.589-0.478 1.067-1.067 1.067h-69.867c-0.589 0-1.067-0.478-1.067-1.067v-29.867c0-0.589 0.478-1.067 1.067-1.067z"></path>
<path fill="#212121" style="fill: var(--color2, #212121)" d="M44.923 15.592c-0.003-4.931-4-8.928-8.931-8.925-4.931 0-8.925 3.997-8.925 8.928 0 3.885 2.512 7.323 6.213 8.504 0.035 0.011 0.072 0.016 0.107 0.016 0.072 0 0.141-0.019 0.2-0.056 0.080-0.045 0.139-0.12 0.165-0.208l2.256-7.144c0.616-0.003 1.112-0.507 1.109-1.123-0.003-0.613-0.501-1.109-1.115-1.109-0.003 0-0.006 0-0.008 0h0c-0.165 0-0.328 0.037-0.477 0.112l-2.979-2.979c-0.147-0.144-0.384-0.139-0.525 0.008-0.139 0.144-0.139 0.373 0 0.517l2.976 2.979c-0.070 0.141-0.111 0.306-0.111 0.481 0 0.352 0.166 0.665 0.423 0.866l0.002 0.002-2.149 6.808c-4.245-1.563-6.419-6.272-4.856-10.517 1.565-4.245 6.272-6.421 10.52-4.856 4.245 1.563 6.419 6.272 4.853 10.517-0.783 2.089-2.334 3.737-4.301 4.63l-0.051 0.021-0.232-1.093c-0.043-0.2-0.24-0.328-0.44-0.285-0.064 0.013-0.123 0.043-0.171 0.085l-2.24 2c-0.152 0.136-0.165 0.371-0.029 0.525 0.045 0.048 0.101 0.085 0.165 0.107l2.856 0.912c0.197 0.061 0.405-0.045 0.469-0.24 0.019-0.064 0.024-0.128 0.011-0.192l-0.229-1.072c3.304-1.395 5.451-4.635 5.443-8.219zM35.995 15.219c0.205 0 0.371 0.168 0.371 0.373s-0.165 0.371-0.371 0.371c-0.205 0-0.373-0.165-0.373-0.371s0.168-0.373 0.373-0.373zM37.219 23.891l1.275-1.139 0.352 1.659-1.627-0.52z"></path>
<path fill="#2196f3" style="fill: var(--color3, #2196f3)" d="M35.621 8.523v0.744c0 0.205 0.168 0.373 0.373 0.373s0.371-0.168 0.371-0.373v-0.744c0-0.205-0.165-0.371-0.371-0.371s-0.373 0.165-0.373 0.371zM28.925 15.219c-0.205 0-0.371 0.168-0.371 0.373s0.165 0.371 0.371 0.371h0.744c0.205 0 0.373-0.165 0.373-0.371s-0.168-0.373-0.373-0.373h-0.744zM43.061 15.963c0.205 0 0.373-0.165 0.373-0.371s-0.168-0.373-0.373-0.373h-0.744c-0.205 0-0.371 0.168-0.371 0.373s0.165 0.371 0.371 0.371h0.744z"></path>
</symbol>
<symbol id="icon-computer" viewBox="0 0 72 32">
<path fill="#f5f4fa" style="fill: var(--color1, #f5f4fa)" d="M1.067 0h69.867c0.589 0 1.067 0.478 1.067 1.067v29.867c0 0.589-0.478 1.067-1.067 1.067h-69.867c-0.589 0-1.067-0.478-1.067-1.067v-29.867c0-0.589 0.478-1.067 1.067-1.067z"></path>
<path fill="#2196f3" style="fill: var(--color3, #2196f3)" d="M35.371 15.395h0.624v2.797h-0.624v-2.797zM37.859 16.637h0.624v1.555h-0.624v-1.555zM32.885 17.571h0.621v0.621h-0.621v-0.621zM31.019 17.261h0.621v0.931h-0.621v-0.931z"></path>
<path fill="#212121" style="fill: var(--color2, #212121)" d="M27.597 23.168h14.925c0.517 0 0.933-0.416 0.933-0.933v-1.243c0-0.515-0.416-0.933-0.933-0.933h-0.309v-7.755l1.765-1.672c0.411 0.203 0.907 0.080 1.176-0.291 0.267-0.371 0.229-0.88-0.091-1.208-0.17-0.174-0.407-0.282-0.669-0.282-0.2 0-0.385 0.062-0.536 0.169l0.003-0.002c-0.246 0.171-0.405 0.453-0.405 0.771 0 0.144 0.032 0.28 0.090 0.402l-0.002-0.006-1.331 1.261v-0.717c0-0.515-0.419-0.933-0.933-0.933h-12.437c-0.515 0-0.933 0.419-0.933 0.933v9.328h-0.312c-0.515 0-0.931 0.419-0.931 0.933v1.243c0 0.517 0.416 0.933 0.931 0.933zM44.389 9.488c0.171 0 0.312 0.139 0.312 0.309 0 0.173-0.141 0.312-0.312 0.312s-0.312-0.139-0.312-0.312c0-0.171 0.141-0.309 0.312-0.309zM28.531 10.731c0-0.171 0.139-0.312 0.312-0.312h12.437c0.171 0 0.312 0.141 0.312 0.312v1.307l-0.624 0.589v-1.275c0-0.171-0.139-0.309-0.309-0.309h-11.195c-0.171 0-0.312 0.139-0.312 0.309v7.773c0 0.173 0.141 0.312 0.312 0.312h11.195c0.171 0 0.309-0.139 0.309-0.312v-5.643l0.624-0.589v7.165h-13.061v-9.328zM31.331 14.773c-0.002 0-0.004-0-0.006-0-0.427 0-0.786 0.287-0.896 0.679l-0.002 0.007c-0.021 0.074-0.034 0.16-0.034 0.248 0 0.339 0.182 0.636 0.454 0.798l0.004 0.002c0.363 0.216 0.821 0.163 1.125-0.131l1.080 0.541c0.125 0.064 0.277 0.035 0.371-0.069l2.299-2.587 2.259 1.693c0.12 0.091 0.291 0.080 0.4-0.024l1.963-1.859v4.744h-10.571v-7.152h10.571v1.552l-2.2 2.083-2.277-1.707c-0.051-0.040-0.117-0.063-0.188-0.063-0.092 0-0.174 0.040-0.231 0.103l-0 0-2.328 2.621-0.872-0.435c0.005-0.037 0.011-0.075 0.011-0.112 0-0.517-0.416-0.933-0.931-0.933zM31.64 15.707c0 0.171-0.139 0.309-0.309 0.309-0 0-0.001 0-0.001 0-0.172 0-0.311-0.139-0.311-0.311s0.139-0.311 0.311-0.311c0.172 0 0.311 0.139 0.311 0.311 0 0 0 0.001 0 0.001v-0zM33.507 20.68h3.109v0.312c0 0.171-0.139 0.312-0.312 0.312h-2.488c-0.171 0-0.309-0.141-0.309-0.312v-0.312zM27.288 20.992c0-0.171 0.139-0.312 0.309-0.312h5.288v0.312c0 0.515 0.416 0.933 0.931 0.933h2.488c0.517 0 0.933-0.419 0.933-0.933v-0.312h5.285c0.173 0 0.312 0.141 0.312 0.312v1.243c0 0.173-0.139 0.312-0.312 0.312h-14.925c-0.171 0-0.309-0.139-0.309-0.312v-1.243z"></path>
</symbol>
<symbol id="icon-facebook" viewBox="0 0 16 32">
<path fill="#afb1b8" style="fill: var(--color4, #afb1b8)" d="M13.073 5.312h2.928v-5.088c-0.512-0.080-2.24-0.224-4.256-0.224-4.224 0-7.104 2.64-7.104 7.504v4.496h-4.64v5.68h4.64v14.32h5.696v-14.32h4.464l0.704-5.68h-5.168v-3.92c0-1.648 0.448-2.768 2.736-2.768z"></path>
</symbol>
<symbol id="icon-instagram" viewBox="0 0 32 32">
<path fill="#afb1b8" style="fill: var(--color4, #afb1b8)" d="M31.968 9.408c-0.080-1.712-0.352-2.88-0.752-3.888-0.4-1.072-1.024-2.032-1.856-2.848-0.8-0.8-1.76-1.44-2.832-1.84-1.008-0.384-2.176-0.672-3.872-0.736-1.712-0.080-2.256-0.096-6.608-0.096-4.336 0-4.88 0.016-6.592 0.080-1.696 0.080-2.864 0.352-3.888 0.752-1.072 0.4-2.032 1.024-2.832 1.84-0.816 0.816-1.44 1.776-1.84 2.832-0.4 1.024-0.672 2.192-0.752 3.888-0.080 1.712-0.096 2.256-0.096 6.608 0 4.336 0.016 4.88 0.096 6.592 0.080 1.696 0.352 2.864 0.736 3.888 0.416 1.072 1.040 2.032 1.856 2.832 0.8 0.816 1.776 1.44 2.832 1.84 1.024 0.4 2.176 0.672 3.888 0.752 1.696 0.064 2.24 0.080 6.592 0.080 4.336 0 4.88-0.016 6.592-0.080 1.696-0.080 2.864-0.352 3.888-0.752 2.151-0.851 3.821-2.521 4.653-4.617l0.019-0.055c0.4-1.024 0.672-2.192 0.752-3.888 0.064-1.712 0.096-2.256 0.096-6.592 0-4.352-0.016-4.896-0.080-6.592zM29.072 22.464c-0.064 1.568-0.32 2.4-0.544 2.976-0.544 1.392-1.648 2.496-3.040 3.040-0.56 0.208-1.408 0.48-2.96 0.544-1.696 0.080-2.208 0.096-6.464 0.096-4.272 0-4.784-0.016-6.464-0.096-1.568-0.064-2.416-0.336-2.976-0.544-0.688-0.256-1.328-0.672-1.84-1.2-0.509-0.507-0.912-1.121-1.172-1.805l-0.012-0.035c-0.224-0.56-0.496-1.408-0.56-2.976-0.080-1.68-0.096-2.192-0.096-6.464 0-4.256 0.016-4.768 0.096-6.464 0.064-1.552 0.336-2.4 0.56-2.96 0.256-0.688 0.656-1.328 1.2-1.84 0.512-0.528 1.136-0.944 1.824-1.2 0.576-0.208 1.424-0.48 2.976-0.544 1.68-0.080 2.192-0.096 6.464-0.096s4.784 0.016 6.464 0.096c1.568 0.064 2.4 0.336 2.976 0.544 0.688 0.256 1.312 0.672 1.824 1.2 0.544 0.512 0.944 1.152 1.2 1.84 0.224 0.56 0.48 1.408 0.544 2.96 0.080 1.696 0.096 2.208 0.096 6.464 0 4.272-0.016 4.784-0.096 6.464z"></path>
<path fill="#afb1b8" style="fill: var(--color4, #afb1b8)" d="M16.048 7.776c-4.528 0-8.224 3.68-8.224 8.224 0 4.528 3.696 8.208 8.224 8.208 4.544 0 8.224-3.68 8.224-8.208 0-4.544-3.68-8.224-8.224-8.224zM16.048 21.328c-2.944 0-5.328-2.384-5.328-5.328s2.384-5.344 5.328-5.344 5.328 2.4 5.328 5.344c0 2.944-2.384 5.328-5.328 5.328zM26.512 7.456c0 1.056-0.848 1.92-1.92 1.92-1.056 0-1.92-0.864-1.92-1.92 0-1.072 0.864-1.92 1.92-1.92 1.072 0 1.92 0.848 1.92 1.92z"></path>
</symbol>
<symbol id="icon-linkedin" viewBox="0 0 32 32">
<path fill="#afb1b8" style="fill: var(--color4, #afb1b8)" d="M31.984 32v-0.016h0.016v-11.728c0-5.744-1.248-10.16-7.952-10.16-3.232 0-5.392 1.76-6.272 3.44h-0.096v-2.912h-6.368v21.36h6.624v-10.576c0-2.784 0.528-5.472 3.984-5.472 3.392 0 3.44 3.184 3.44 5.648v10.416h6.624zM0.528 10.624h6.624v21.36h-6.624v-21.36zM3.84 0c-2.128 0-3.84 1.712-3.84 3.84 0 2.112 1.712 3.872 3.84 3.872 2.112 0 3.84-1.76 3.84-3.872 0-2.121-1.719-3.84-3.84-3.84v0z"></path>
</symbol>
<symbol id="icon-twitter" viewBox="0 0 32 32">
<path fill="#afb1b8" style="fill: var(--color4, #afb1b8)" d="M32 6.064c-1.2 0.528-2.464 0.88-3.792 1.040 1.36-0.816 2.4-2.080 2.896-3.632-1.28 0.768-2.672 1.296-4.16 1.6-1.206-1.277-2.91-2.074-4.799-2.080h-0.001c-3.623 0-6.56 2.937-6.56 6.56v0c0 0.528 0.048 1.024 0.16 1.504-5.468-0.276-10.277-2.879-13.493-6.83l-0.027-0.034c-0.576 0.976-0.896 2.096-0.896 3.312 0 2.272 1.168 4.288 2.912 5.456-1.056-0.016-2.096-0.336-2.96-0.816v0.080c0.003 3.162 2.232 5.804 5.205 6.44l0.043 0.008c-0.528 0.144-1.12 0.208-1.712 0.208-0.432 0-0.848-0.016-1.248-0.112 0.87 2.626 3.27 4.501 6.119 4.576l0.009 0c-2.215 1.745-5.046 2.798-8.122 2.798-0.555 0-1.101-0.034-1.638-0.101l0.064 0.006c2.896 1.872 6.336 2.944 10.064 2.944 12.064 0 18.656-10 18.656-18.672 0-0.288 0-0.56-0.016-0.848 1.296-0.928 2.4-2.080 3.296-3.408z"></path>
</symbol>
<symbol id="icon-brand" viewBox="0 0 57 32">
<path fill="#afb1b8" style="fill: var(--color4, #afb1b8)" d="M14.267 23.856c0.133 0.149 0.203 0.331 0.197 0.523 0.005 0.123-0.016 0.245-0.069 0.357-0.053 0.117-0.133 0.219-0.235 0.299-0.251 0.176-0.565 0.261-0.88 0.24h-1.547v-3.301h1.515c0.299-0.016 0.597 0.059 0.837 0.219 0.101 0.075 0.176 0.171 0.229 0.277s0.075 0.224 0.069 0.341c0.005 0.181-0.053 0.363-0.176 0.507-0.117 0.128-0.283 0.219-0.464 0.256 0.208 0.037 0.389 0.133 0.523 0.283zM12.453 23.36h0.645c0.149 0.005 0.293-0.032 0.411-0.112 0.053-0.043 0.091-0.091 0.112-0.144 0.027-0.059 0.037-0.117 0.032-0.181 0-0.059-0.005-0.117-0.032-0.171-0.023-0.060-0.060-0.11-0.106-0.149l-0.001-0c-0.104-0.072-0.233-0.114-0.372-0.114-0.019 0-0.039 0.001-0.057 0.002l0.002-0h-0.635v0.869zM13.573 24.624c0.053-0.043 0.096-0.091 0.123-0.149s0.037-0.123 0.032-0.187c0.001-0.010 0.002-0.021 0.002-0.032 0-0.057-0.014-0.11-0.040-0.157l0.001 0.002c-0.026-0.061-0.066-0.111-0.116-0.149l-0.001-0.001c-0.109-0.078-0.246-0.124-0.393-0.124-0.017 0-0.035 0.001-0.052 0.002l0.002-0h-0.677v0.907h0.688c0.155 0.011 0.309-0.032 0.432-0.112zM17.371 25.275l-0.848-1.291h-0.315v1.291h-0.725v-3.301h1.371c0.347-0.021 0.693 0.080 0.96 0.283 0.192 0.176 0.309 0.416 0.325 0.667 0.021 0.251-0.059 0.496-0.224 0.699-0.171 0.176-0.4 0.293-0.656 0.336l0.901 1.317h-0.789zM16.208 23.536h0.592c0.416 0 0.619-0.165 0.619-0.501 0.001-0.010 0.001-0.022 0.001-0.034 0-0.059-0.012-0.115-0.034-0.166l0.001 0.003c-0.027-0.064-0.064-0.123-0.117-0.176-0.133-0.096-0.299-0.144-0.469-0.133h-0.597l0.005 1.008zM21.339 24.613h-1.451l-0.256 0.661h-0.757l1.328-3.264h0.821l1.323 3.264h-0.763l-0.245-0.661zM21.141 24.112l-0.528-1.397-0.528 1.397h1.056zM26.304 25.275h-0.72l-1.616-2.245v2.245h-0.72v-3.301h0.72l1.616 2.256v-2.256h0.72v3.301zM30.416 24.485c-0.149 0.251-0.379 0.453-0.651 0.581-0.315 0.144-0.667 0.219-1.013 0.208h-1.285v-3.301h1.285c0.347-0.011 0.699 0.064 1.013 0.203 0.272 0.128 0.501 0.331 0.651 0.576 0.149 0.267 0.224 0.565 0.224 0.869 0 0.299-0.075 0.597-0.224 0.864zM29.589 24.405c0.208-0.219 0.32-0.496 0.32-0.789 0-0.288-0.112-0.565-0.32-0.784-0.245-0.203-0.571-0.304-0.901-0.283h-0.501v2.139h0.501c0.331 0.016 0.656-0.085 0.901-0.283zM21.787 3.605s9.301 3.216 9.104 7.867v7.872s-9.296-3.216-9.099-7.872l-0.005-7.867zM39.179 17.499c1.755-1.104 3.787-1.792 5.904-1.995v-2.459c-2.443 0.859-4.512 2.421-5.904 4.453z"></path>
<path fill="#afb1b8" style="fill: var(--color4, #afb1b8)" d="M38.123 18.24c1.435-2.651 3.931-4.693 6.965-5.712v-7.099s-13.248 4.581-12.965 11.205v11.205s0.587-0.208 1.515-0.592c0-0.357 0-0.72 0.043-1.083 0.277-3.077 1.872-5.925 4.443-7.925z"></path>
<path fill="#afb1b8" style="fill: var(--color4, #afb1b8)" d="M36.859 22.405c0.075-0.779 0.229-1.547 0.464-2.293-1.6 1.723-2.565 3.867-2.768 6.123-0.021 0.208-0.032 0.421-0.037 0.645 0.757-0.331 1.632-0.747 2.549-1.232-0.235-1.067-0.304-2.16-0.208-3.243zM37.387 22.443c-0.085 0.981-0.032 1.973 0.165 2.939 3.616-1.984 7.685-5.045 7.531-8.747v-0.325c-2.587 0.267-5.008 1.301-6.885 2.949-0.443 1.019-0.715 2.091-0.811 3.184z"></path>
</symbol>
<symbol id="icon-company" viewBox="0 0 57 32">
<path fill="#afb1b8" style="fill: var(--color4, #afb1b8)" d="M19.413 26.187c0.011 0 0.016 0 0.027 0.005 0.005 0 0.011 0.005 0.021 0.011l0.112 0.112c-0.091 0.091-0.197 0.16-0.325 0.208-0.144 0.053-0.304 0.080-0.464 0.080-0.149 0-0.299-0.021-0.437-0.075-0.123-0.043-0.235-0.112-0.325-0.197-0.096-0.091-0.165-0.197-0.213-0.309-0.053-0.128-0.075-0.261-0.075-0.395s0.027-0.272 0.080-0.395c0.048-0.117 0.128-0.224 0.224-0.309 0.101-0.091 0.219-0.155 0.352-0.203 0.139-0.048 0.293-0.075 0.448-0.069 0.013-0.001 0.029-0.001 0.045-0.001 0.261 0 0.5 0.091 0.688 0.243l-0.002-0.002-0.101 0.123-0.021 0.021c-0.011 0.005-0.027 0.005-0.043 0.005-0.011 0-0.027-0.005-0.037-0.011l-0.053-0.032-0.075-0.043c-0.032-0.011-0.064-0.027-0.096-0.037-0.043-0.016-0.091-0.021-0.133-0.032-0.059-0.011-0.117-0.011-0.171-0.011-0.112-0.005-0.224 0.016-0.325 0.053-0.096 0.032-0.181 0.080-0.251 0.149-0.138 0.131-0.225 0.316-0.225 0.521 0 0.010 0 0.020 0.001 0.029l-0-0.001c-0.005 0.107 0.016 0.213 0.059 0.32 0.032 0.085 0.091 0.165 0.16 0.235 0.069 0.064 0.149 0.112 0.24 0.144 0.096 0.037 0.197 0.053 0.304 0.053 0.059 0 0.117-0.005 0.176-0.011 0.096-0.011 0.187-0.037 0.267-0.085 0.043-0.021 0.080-0.048 0.117-0.080 0.016-0.011 0.032-0.016 0.053-0.016zM22.773 25.627c0 0.133-0.027 0.267-0.080 0.395-0.048 0.112-0.123 0.213-0.219 0.304-0.096 0.085-0.213 0.155-0.341 0.197-0.288 0.096-0.603 0.096-0.885 0-0.128-0.043-0.245-0.112-0.341-0.197-0.096-0.091-0.171-0.197-0.224-0.309-0.101-0.256-0.101-0.533 0-0.789 0.053-0.112 0.128-0.219 0.224-0.309 0.096-0.085 0.213-0.149 0.341-0.192 0.283-0.096 0.597-0.096 0.885 0 0.128 0.048 0.245 0.112 0.341 0.203 0.096 0.085 0.171 0.192 0.219 0.304 0.053 0.123 0.080 0.261 0.080 0.395zM22.469 25.627c0-0.107-0.016-0.213-0.059-0.315-0.032-0.091-0.085-0.171-0.155-0.24-0.069-0.063-0.151-0.113-0.24-0.148l-0.005-0.002c-0.208-0.069-0.437-0.069-0.64 0-0.096 0.037-0.181 0.085-0.251 0.149-0.069 0.069-0.123 0.149-0.155 0.24-0.075 0.203-0.075 0.427 0 0.629 0.032 0.085 0.085 0.171 0.155 0.235 0.069 0.069 0.155 0.117 0.251 0.149 0.203 0.069 0.432 0.069 0.64 0 0.096-0.032 0.176-0.080 0.245-0.149 0.069-0.064 0.123-0.149 0.155-0.235 0.043-0.101 0.059-0.208 0.059-0.315zM25.067 25.957l0.027 0.069c0.016-0.021 0.021-0.048 0.037-0.069 0.011-0.021 0.021-0.048 0.037-0.069l0.741-1.173c0.016-0.021 0.027-0.032 0.043-0.037 0.021-0.005 0.043-0.005 0.059-0.005h0.224v1.909h-0.261v-1.531l-0.747 1.189c-0.011 0.021-0.027 0.032-0.048 0.043-0.016 0.011-0.037 0.016-0.064 0.016h-0.037c-0.027 0-0.048-0.005-0.064-0.016-0.021-0.011-0.037-0.021-0.048-0.043l-0.768-1.195v1.531h-0.251v-1.904h0.219c0.021 0 0.043 0 0.064 0.005 0.016 0.005 0.032 0.021 0.037 0.037l0.763 1.173c0.011 0.021 0.027 0.048 0.037 0.069zM27.861 25.861v0.715h-0.293v-1.904h0.651c0.123-0.005 0.245 0.011 0.363 0.043 0.096 0.021 0.181 0.064 0.256 0.117 0.118 0.099 0.192 0.246 0.192 0.41 0 0.008-0 0.015-0 0.023l0-0.001c0.005 0.080-0.016 0.165-0.053 0.24-0.035 0.078-0.088 0.142-0.153 0.191l-0.001 0.001c-0.075 0.059-0.165 0.101-0.256 0.128-0.117 0.032-0.235 0.048-0.352 0.043l-0.352-0.005zM27.861 25.659h0.352c0.075 0 0.155-0.011 0.224-0.032 0.059-0.016 0.117-0.043 0.165-0.080 0.040-0.035 0.073-0.077 0.095-0.126l0.001-0.002c0.027-0.048 0.037-0.101 0.037-0.16 0-0.053-0.005-0.107-0.032-0.155-0.023-0.052-0.058-0.095-0.101-0.127l-0.001-0.001c-0.102-0.067-0.227-0.107-0.361-0.107-0.010 0-0.020 0-0.030 0.001l0.001-0h-0.352v0.789zM31.771 26.581h-0.229c-0.027 0-0.048-0.005-0.064-0.021-0.016-0.010-0.029-0.025-0.037-0.042l-0-0.001-0.197-0.459h-0.997l-0.203 0.459c-0.010 0.017-0.022 0.031-0.037 0.042l-0 0c-0.016 0.016-0.043 0.021-0.064 0.021h-0.229l0.869-1.909h0.304l0.885 1.909zM30.331 25.872h0.821l-0.347-0.779c-0.023-0.049-0.045-0.107-0.062-0.168l-0.002-0.008-0.037 0.096c-0.011 0.032-0.021 0.059-0.032 0.080l-0.341 0.779zM33.024 24.677c0.021 0.011 0.032 0.021 0.048 0.037l1.269 1.44v-1.483h0.261v1.909h-0.144c-0.021 0-0.043-0.005-0.064-0.011-0.017-0.010-0.031-0.022-0.042-0.037l-0-0-1.275-1.44c0.005 0.027 0.005 0.048 0 0.069v1.419h-0.256v-1.909h0.155c0.016 0 0.032 0 0.048 0.005zM36.747 25.819v0.763h-0.293v-0.763l-0.8-1.147h0.256c0.027 0 0.048 0.005 0.064 0.016s0.027 0.027 0.037 0.043l0.507 0.741c0.021 0.032 0.037 0.059 0.053 0.091l0.032 0.080 0.037-0.085c0.016-0.027 0.032-0.059 0.053-0.085l0.496-0.747c0.011-0.016 0.024-0.030 0.037-0.043l0-0c0.016-0.011 0.037-0.016 0.064-0.016h0.261l-0.805 1.152zM24.923 21.467c0.123 0.016 0.251 0.027 0.384 0.037 1.957-0.763 3.621-2.011 4.768-3.589 1.152-1.579 1.744-3.413 1.696-5.28l-2.16-1.883c0.437 1.989 0.235 4.043-0.597 5.936-0.827 1.893-2.245 3.547-4.091 4.779z"></path>
<path fill="#afb1b8" style="fill: var(--color4, #afb1b8)" d="M24.149 21.381l0.059 0.011c1.973-1.232 3.483-2.944 4.32-4.923 0.843-1.979 0.981-4.133 0.4-6.181l-3.077-2.677c1.243 2.203 1.744 4.661 1.445 7.099s-1.392 4.752-3.147 6.672zM34.592 14.837c-0.523 2.053-1.792 3.904-3.621 5.275-0.533 0.405-1.109 0.763-1.723 1.077 1.488-0.384 2.859-1.056 4.005-1.968 1.141-0.912 2.027-2.043 2.587-3.301l-1.248-1.083z"></path>
<path fill="#afb1b8" style="fill: var(--color4, #afb1b8)" d="M34.101 14.539l-1.776-1.547c-0.032 1.76-0.608 3.483-1.669 4.987-1.061 1.499-2.56 2.731-4.352 3.557h0.011c0.395 0 0.795-0.021 1.189-0.064 1.675-0.592 3.152-1.536 4.304-2.747s1.941-2.651 2.293-4.187zM24.405 6.485l-2.123-1.851c-1.893 0.64-3.525 1.76-4.677 3.216s-1.771 3.179-1.781 4.944c0.011 1.952 0.768 3.845 2.149 5.381 1.387 1.541 3.323 2.629 5.504 3.104 1.947-2.059 3.083-4.608 3.253-7.269 0.165-2.656-0.651-5.296-2.325-7.525zM39.008 14.251c-0.011-2.315-1.072-4.533-2.96-6.171-1.883-1.637-4.437-2.56-7.104-2.571-1.232 0-2.453 0.197-3.6 0.587l12.992 11.285c0.443-0.997 0.672-2.059 0.672-3.131z"></path>
</symbol>
<symbol id="icon-companytagline" viewBox="0 0 57 32">
<path fill="#afb1b8" style="fill: var(--color4, #afb1b8)" d="M28.491 14.613c-0.235-0.315-0.352-0.683-0.32-1.061v-1.536c0-0.469 0.107-0.827 0.32-1.072s0.581-0.368 1.099-0.368c0.491 0 0.837 0.107 1.045 0.315 0.224 0.267 0.331 0.592 0.304 0.917v0.363h-0.875v-0.368c0.005-0.117-0.005-0.24-0.027-0.357-0.014-0.087-0.058-0.161-0.122-0.213l-0.001-0.001c-0.077-0.051-0.172-0.082-0.273-0.082-0.015 0-0.029 0.001-0.043 0.002l0.002-0c-0.014-0.001-0.030-0.002-0.047-0.002-0.108 0-0.208 0.033-0.291 0.089l0.002-0.001c-0.075 0.064-0.128 0.144-0.144 0.235-0.027 0.128-0.037 0.251-0.037 0.379v1.867c-0.011 0.181 0.027 0.363 0.112 0.528 0.048 0.053 0.107 0.096 0.176 0.123s0.149 0.037 0.229 0.032c0.112 0.005 0.219-0.021 0.309-0.085 0.069-0.059 0.117-0.139 0.128-0.229 0.021-0.123 0.032-0.245 0.027-0.373v-0.379h0.875v0.347c0.027 0.341-0.080 0.683-0.299 0.965-0.203 0.229-0.544 0.347-1.051 0.347-0.501 0-0.885-0.123-1.099-0.379zM32.133 14.629c-0.219-0.24-0.331-0.587-0.331-1.051v-1.616c0-0.453 0.112-0.8 0.331-1.035 0.224-0.235 0.592-0.352 1.109-0.352s0.885 0.117 1.104 0.352c0.219 0.235 0.336 0.581 0.336 1.035v1.616c0 0.459-0.117 0.811-0.341 1.051s-0.587 0.363-1.099 0.363c-0.507 0-0.885-0.123-1.109-0.363zM33.653 14.245c0.075-0.155 0.112-0.315 0.101-0.48v-1.984c0.011-0.16-0.021-0.32-0.101-0.469-0.043-0.053-0.107-0.101-0.181-0.128-0.069-0.027-0.149-0.037-0.229-0.027-0.018-0.003-0.040-0.004-0.061-0.004-0.139 0-0.264 0.061-0.349 0.158l-0 0.001c-0.080 0.149-0.117 0.309-0.107 0.469v1.995c-0.011 0.16 0.027 0.325 0.107 0.475 0.053 0.053 0.112 0.091 0.187 0.123 0.069 0.027 0.144 0.037 0.224 0.037 0.075 0 0.155-0.011 0.224-0.037 0.069-0.032 0.133-0.069 0.187-0.123v-0.005zM35.733 10.624h0.944l0.704 2.981 0.725-2.981h0.917l0.091 4.309h-0.677l-0.069-2.997-0.699 2.997h-0.544l-0.725-3.008-0.069 3.008h-0.683l0.085-4.309zM40.176 10.624h1.467c0.843 0 1.269 0.405 1.269 1.221 0 0.784-0.448 1.173-1.339 1.173h-0.501v1.915h-0.901l0.005-4.309zM41.429 12.464c0.085 0.011 0.176 0.005 0.267-0.021 0.085-0.021 0.165-0.064 0.229-0.112 0.107-0.149 0.149-0.32 0.128-0.491 0.005-0.128-0.005-0.261-0.043-0.389-0.011-0.046-0.034-0.086-0.064-0.117l0 0c-0.032-0.036-0.071-0.065-0.115-0.085l-0.002-0.001c-0.123-0.053-0.261-0.080-0.4-0.069h-0.352v1.285h0.352zM44.213 10.624h0.976l0.997 4.309h-0.843l-0.197-0.997h-0.869l-0.203 0.997h-0.859l0.997-4.309zM45.045 13.44l-0.336-1.808-0.341 1.808h0.677zM46.992 10.624h0.635l1.216 2.459v-2.459h0.752v4.309h-0.603l-1.221-2.565v2.565h-0.779v-4.309zM51.355 13.291l-1.008-2.661h0.848l0.619 1.707 0.576-1.707h0.832l-0.997 2.661v1.643h-0.869v-1.643zM29.888 16.816v0.224h-0.736v1.749h-0.309v-1.749h-0.747v-0.224h1.792zM32.208 18.789h-0.24c-0.027 0-0.048-0.005-0.069-0.016-0.015-0.013-0.028-0.029-0.037-0.047l-0-0.001-0.213-0.469h-1.024l-0.219 0.469c-0.005 0.021-0.016 0.037-0.032 0.053s-0.043 0.021-0.064 0.021h-0.24l0.907-1.979h0.315l0.917 1.968zM30.704 18.059h0.859l-0.363-0.805c-0.027-0.064-0.048-0.123-0.069-0.187-0.011 0.037-0.021 0.075-0.032 0.107l-0.032 0.080-0.363 0.805zM33.771 18.597h0.171c0.048-0.005 0.096-0.016 0.144-0.027 0.043-0.005 0.085-0.021 0.128-0.032 0.043-0.016 0.080-0.032 0.123-0.053v-0.443h-0.389c-0.008-0.004-0.015-0.010-0.021-0.016l-0-0-0.016-0.016c0-0.005-0.005-0.011-0.005-0.016v-0.155h0.704v0.757c-0.109 0.071-0.235 0.127-0.371 0.158l-0.008 0.002c-0.075 0.021-0.155 0.032-0.229 0.043-0.085 0.005-0.176 0.011-0.261 0.011-0.16 0-0.315-0.021-0.459-0.075-0.139-0.043-0.261-0.117-0.363-0.203-0.101-0.091-0.181-0.197-0.235-0.315-0.054-0.12-0.085-0.26-0.085-0.407 0-0.001 0-0.003 0-0.004v0c0-0.139 0.027-0.277 0.085-0.411 0.053-0.117 0.128-0.224 0.235-0.315 0.101-0.091 0.224-0.16 0.363-0.203 0.155-0.053 0.32-0.075 0.485-0.075 0.080 0 0.165 0.005 0.251 0.016 0.075 0.011 0.144 0.027 0.213 0.053 0.064 0.016 0.128 0.043 0.181 0.075 0.059 0.032 0.112 0.064 0.16 0.107l-0.091 0.117c-0.006 0.011-0.015 0.021-0.026 0.026l-0 0c-0.011 0.011-0.027 0.011-0.043 0.011-0.021 0-0.037-0.005-0.053-0.011-0.027-0.016-0.059-0.032-0.091-0.048-0.035-0.022-0.076-0.040-0.119-0.052l-0.004-0.001c-0.053-0.021-0.107-0.037-0.165-0.043-0.075-0.016-0.155-0.021-0.229-0.021-0.123 0-0.24 0.021-0.352 0.059-0.101 0.032-0.192 0.085-0.267 0.155s-0.128 0.155-0.165 0.245c-0.080 0.213-0.080 0.443 0 0.656 0.037 0.096 0.101 0.181 0.181 0.251 0.075 0.069 0.165 0.123 0.261 0.155 0.117 0.037 0.24 0.048 0.363 0.043zM36.656 18.565h0.992v0.224h-1.296v-1.973h0.309l-0.005 1.749zM38.677 18.789h-0.315v-1.973h0.315v1.973zM39.829 16.821c0.016 0.011 0.032 0.021 0.043 0.037l1.328 1.488c-0.003-0.010-0.004-0.022-0.004-0.035s0.001-0.024 0.004-0.036l-0 0.001v-1.472h0.267v1.984h-0.155c-0.021 0-0.043 0-0.064-0.011s-0.038-0.022-0.053-0.037v0l-1.323-1.488v1.536h-0.256v-1.973h0.16c0.016 0 0.037 0 0.053 0.005zM43.749 16.816v0.213h-1.099v0.656h0.891v0.208h-0.891v0.672h1.099v0.219h-1.419v-1.968h1.419zM11.285 4.613l13.755 3.371v11.819l-13.755-3.371v-11.819zM10.4 3.605v13.403l15.52 3.803v-13.397l-15.52-3.808z"></path>
<path fill="#afb1b8" style="fill: var(--color4, #afb1b8)" d="M18.72 27.035l-15.52-3.808v-13.403l15.52 3.808v13.403z"></path>
<path fill="#afb1b8" style="fill: var(--color4, #afb1b8)" d="M10.656 4.464l13.579 3.328-5.771 4.987-13.584-3.333 5.776-4.981zM10.4 3.605l-7.2 6.219 15.52 3.808 7.2-6.219-15.52-3.808zM19.595 26.277l6.325-5.461-6.325-1.557v7.019z"></path>
</symbol>
<symbol id="icon-fosterpeters" viewBox="0 0 57 32">
<path fill="#2196f3" style="fill: var(--color3, #2196f3)" d="M12.875 11.253c1.28 0 2.315 0.923 2.315 2.059s-1.035 2.059-2.315 2.059-2.315-0.923-2.315-2.059 1.035-2.059 2.315-2.059z"></path>
<path fill="#2196f3" style="fill: var(--color3, #2196f3)" d="M29.968 10.592c-0.005-1.579-0.709-3.088-1.968-4.208-1.253-1.115-2.955-1.744-4.736-1.749-1.776 0.005-3.477 0.635-4.736 1.749-1.253 1.12-1.963 2.629-1.968 4.208v8.709s13.408-1.328 13.408-8.704v-0.005zM5.867 22.155c0 1.099 0.491 2.155 1.365 2.928 0.875 0.779 2.059 1.216 3.296 1.221 1.237-0.005 2.421-0.443 3.291-1.216 0.875-0.779 1.371-1.829 1.371-2.928v-6.059s-9.323 0.923-9.323 6.053zM10.528 23.243c-0.24 0-0.48-0.064-0.677-0.181-0.203-0.123-0.357-0.288-0.453-0.491-0.057-0.123-0.091-0.266-0.091-0.418 0-0.073 0.008-0.144 0.023-0.213l-0.001 0.007c0.048-0.213 0.165-0.405 0.336-0.555 0.171-0.155 0.389-0.256 0.624-0.299 0.24-0.043 0.485-0.021 0.709 0.059 0.219 0.085 0.411 0.224 0.544 0.4 0.133 0.181 0.208 0.389 0.208 0.603 0 0.144-0.032 0.288-0.091 0.421-0.137 0.273-0.37 0.481-0.653 0.584l-0.008 0.003c-0.149 0.053-0.309 0.085-0.469 0.085v-0.005z"></path>
<path fill="#2196f3" style="fill: var(--color3, #2196f3)" d="M22.085 23.077q0.123-0.251 0.123-0.587v-0.101q0-0.336-0.123-0.592-0.091-0.192-0.24-0.32-0.048-0.037-0.101-0.075-0.048-0.027-0.096-0.048-0.187-0.085-0.411-0.085t-0.411 0.085q-0.048 0.021-0.096 0.048-0.053 0.037-0.101 0.075-0.149 0.128-0.24 0.32-0.123 0.256-0.123 0.592v0.112q0.005 0.325 0.128 0.581 0.085 0.181 0.229 0.304 0.053 0.048 0.112 0.085 0.048 0.027 0.101 0.053 0.181 0.080 0.405 0.080 0.229 0 0.416-0.091 0.048-0.021 0.091-0.048 0.059-0.037 0.117-0.085 0.133-0.123 0.219-0.304zM23.685 22.832q0.043 0.059 0.043 0.144 0 0.069-0.032 0.123-0.021 0.037-0.064 0.069-0.091 0.069-0.261 0.069-0.261 0-0.373-0.133-0.075-0.091-0.075-0.245h-0.469q0 0.165 0.064 0.299 0.021 0.048 0.048 0.091l0.005 0.005q0.112 0.16 0.325 0.256t0.475 0.096q0.379 0 0.603-0.165 0.096-0.075 0.149-0.171 0.075-0.128 0.075-0.293 0-0.149-0.059-0.272-0.043-0.096-0.123-0.171-0.187-0.181-0.587-0.299-0.213-0.069-0.325-0.144-0.080-0.053-0.101-0.123-0.011-0.032-0.011-0.064 0-0.059 0.021-0.101 0.027-0.053 0.075-0.091 0.096-0.069 0.267-0.069 0.176 0 0.277 0.085 0.021 0.021 0.043 0.048 0.053 0.080 0.053 0.197h0.469q0-0.144-0.048-0.261-0.027-0.053-0.059-0.107-0.021-0.032-0.048-0.064-0.096-0.117-0.245-0.187-0.192-0.085-0.437-0.085-0.24 0-0.437 0.080-0.192 0.080-0.299 0.224-0.043 0.059-0.064 0.128-0.037 0.096-0.037 0.203t0.032 0.203q0.085 0.213 0.357 0.363 0.139 0.075 0.384 0.155t0.336 0.149q0.032 0.027 0.053 0.059zM41.989 22.832q0.043 0.059 0.043 0.144 0 0.069-0.032 0.123-0.021 0.037-0.064 0.069-0.096 0.069-0.261 0.069-0.261 0-0.373-0.133-0.075-0.091-0.075-0.245h-0.469q0 0.165 0.059 0.299 0.021 0.048 0.053 0.091l0.005 0.005q0.112 0.16 0.32 0.256 0.219 0.096 0.48 0.096 0.379 0 0.603-0.165 0.096-0.075 0.149-0.171 0.075-0.128 0.075-0.293 0-0.149-0.059-0.272-0.048-0.096-0.123-0.171-0.187-0.181-0.587-0.299-0.213-0.069-0.325-0.144-0.080-0.053-0.107-0.123-0.005-0.032-0.005-0.064 0-0.059 0.021-0.101 0.021-0.053 0.075-0.091 0.091-0.069 0.267-0.069t0.272 0.085q0.027 0.021 0.048 0.048 0.053 0.080 0.053 0.197h0.469q0-0.144-0.053-0.261-0.021-0.053-0.053-0.107-0.021-0.032-0.048-0.064-0.096-0.117-0.245-0.187-0.192-0.085-0.437-0.085-0.24 0-0.437 0.080-0.192 0.080-0.299 0.224-0.043 0.059-0.064 0.128-0.037 0.096-0.037 0.203t0.032 0.203q0.085 0.213 0.352 0.363 0.144 0.075 0.389 0.155 0.24 0.080 0.336 0.149 0.032 0.027 0.053 0.059zM19.056 22.645h0.896v-0.379h-0.896v-0.587h1.008v-0.379h-1.477v2.272h0.469v-0.928zM25.531 21.68h0.699v-0.379h-1.856v0.379h0.688v1.893h0.469v-1.893zM26.965 22.587h0.896v-0.368h-0.896v-0.539h1.051v-0.379h-1.52v2.272h1.525v-0.373h-1.056v-0.613zM28.763 22.741h0.373l0.427 0.832h0.501v-0.021l-0.491-0.928q0.203-0.091 0.304-0.251 0.101-0.155 0.101-0.384t-0.107-0.389q-0.043-0.064-0.112-0.123-0.219-0.176-0.619-0.176h-0.848v2.272h0.469v-0.832zM31.6 23.573v-0.8h0.411q0.405 0 0.635-0.192 0.080-0.069 0.133-0.155 0.096-0.155 0.096-0.373 0-0.176-0.064-0.32-0.016-0.037-0.037-0.075-0.032-0.048-0.075-0.096-0.091-0.101-0.229-0.171-0.192-0.091-0.448-0.091h-0.891v2.272h0.469zM33.664 22.587h0.901v-0.368h-0.901v-0.539h1.056v-0.379h-1.525v2.272h1.525v-0.373h-1.056v-0.613zM36.043 21.68h0.699v-0.379h-1.856v0.379h0.688v1.893h0.469v-1.893zM37.477 22.587h0.901v-0.368h-0.901v-0.539h1.051v-0.379h-1.52v2.272h1.525v-0.373h-1.056v-0.613zM39.275 22.741h0.373l0.427 0.832h0.507v-0.021l-0.496-0.928q0.208-0.091 0.309-0.251 0.101-0.155 0.101-0.384t-0.107-0.389q-0.048-0.064-0.112-0.123-0.219-0.176-0.624-0.176h-0.843v2.272h0.464v-0.832zM21.605 21.84q0.128 0.187 0.128 0.544v0.112q-0.005 0.357-0.128 0.539-0.059 0.085-0.133 0.128-0.101 0.059-0.229 0.059-0.133 0-0.229-0.059-0.085-0.048-0.139-0.133-0.128-0.192-0.128-0.539v-0.112q0-0.357 0.128-0.539 0.053-0.080 0.133-0.128 0.096-0.059 0.229-0.059t0.229 0.059q0.080 0.048 0.139 0.128zM29.141 22.363h-0.379v-0.683h0.379q0.187 0 0.277 0.091 0.016 0.016 0.027 0.032 0.064 0.085 0.064 0.224 0 0.117-0.053 0.197-0.021 0.027-0.043 0.048l-0.005 0.005q-0.096 0.085-0.267 0.085zM32.021 22.395h-0.421v-0.715h0.432q0.139 0 0.229 0.069 0.021 0.016 0.043 0.037t0.037 0.048q0.059 0.091 0.059 0.219 0 0.133-0.059 0.213-0.016 0.021-0.037 0.037-0.096 0.091-0.283 0.091zM39.653 22.363h-0.379v-0.683h0.379q0.187 0 0.283 0.091l0.021 0.032q0.069 0.085 0.069 0.224 0 0.117-0.059 0.197-0.016 0.027-0.037 0.048-0.005 0-0.005 0.005-0.096 0.085-0.272 0.085z"></path>
</symbol>
<symbol id="icon-taglinehere" viewBox="0 0 57 32">
<path fill="#afb1b8" style="fill: var(--color4, #afb1b8)" d="M26.654 3.165h0.073c0.135 0 0.281 0.013 0.425 0.026 0.699 0.050 1.344 0.151 1.971 0.301l-0.082-0.017v-1.527c-0.565-0.149-1.23-0.259-1.913-0.309l-0.037-0.002c-0.22-0.017-0.494-0.031-0.77-0.038l-0.018-0h-0.228c-1.32 0.005-2.635 0.174-3.913 0.505-1.456 0.363-2.853 0.932-4.151 1.689v15.145c1.137-0.632 2.454-1.16 3.84-1.516l0.117-0.026c1.088-0.278 2.201-0.449 3.321-0.51h0.045c0.188-0.010 0.375-0.015 0.568-0.016v-1.552c-1.543 0.021-3.027 0.229-4.445 0.602l0.128-0.029c-0.523 0.136-1.027 0.283-1.5 0.445l-0.54 0.183v-11.809l0.23-0.111c1.638-0.796 3.55-1.311 5.568-1.429l0.041-0.002c0.007-0.001 0.016-0.001 0.024-0.001s0.017 0 0.025 0.001l-0.001-0c0.215-0.011 0.431-0.016 0.643-0.016h0.243c0.112 0.003 0.224 0.005 0.336 0.012zM29.415 4.726c0.308 0.024 0.667 0.038 1.029 0.038 0.005 0 0.010 0 0.016 0h-0.001c1.464-0.006 2.881-0.198 4.231-0.554l-0.117 0.026c1.503-0.383 2.819-0.912 4.043-1.587l-0.087 0.044v14.875c-1.195 0.71-2.578 1.289-4.042 1.665l-0.11 0.024c-1.173 0.314-2.52 0.498-3.91 0.503h-0.004c-0.028 0-0.061 0-0.094 0-1.020 0-2.011-0.128-2.957-0.369l0.083 0.018v-14.971c0.229 0.053 0.466 0.101 0.706 0.142 0.394 0.067 0.81 0.115 1.214 0.145zM36.985 4.842l-0.54 0.181c-0.326 0.119-0.826 0.273-1.334 0.411l-0.167 0.038c-1.344 0.36-2.888 0.569-4.48 0.575h-0.004c-0.352 0-0.676-0.010-0.989-0.030l-0.43-0.028v12.148l0.37 0.032c0.315 0.029 0.68 0.045 1.050 0.045 0.001 0 0.001 0 0.002 0h-0c1.257-0.006 2.473-0.172 3.631-0.48l-0.1 0.023c1.058-0.269 1.977-0.608 2.847-1.031l-0.088 0.039 0.231-0.111v-11.812z"></path>
<path fill="#afb1b8" style="fill: var(--color4, #afb1b8)" d="M19.056 24.112c-0.075-0.080-0.171-0.144-0.272-0.187-0.107-0.043-0.213-0.064-0.325-0.059-0.123 0-0.24 0.021-0.347 0.064-0.101 0.043-0.197 0.101-0.272 0.181-0.073 0.076-0.133 0.167-0.174 0.266l-0.002 0.006c-0.043 0.107-0.059 0.219-0.059 0.331v2.027c-0.005 0.144 0.021 0.283 0.080 0.416 0.048 0.101 0.117 0.192 0.203 0.267 0.080 0.069 0.176 0.117 0.277 0.144 0.096 0.032 0.197 0.043 0.299 0.043 0.117 0.005 0.224-0.021 0.331-0.069 0.101-0.043 0.192-0.107 0.267-0.187s0.139-0.171 0.176-0.272c0.043-0.101 0.069-0.213 0.069-0.32v-0.229h-0.533v0.181c0.005 0.064-0.005 0.123-0.027 0.181-0.022 0.043-0.048 0.080-0.080 0.112l0-0c-0.031 0.027-0.069 0.047-0.11 0.058l-0.002 0c-0.032 0.011-0.069 0.021-0.107 0.021-0.007 0.001-0.016 0.001-0.024 0.001-0.041 0-0.081-0.008-0.116-0.023l0.002 0.001c-0.047-0.018-0.085-0.050-0.111-0.090l-0.001-0.001c-0.044-0.071-0.070-0.158-0.070-0.25 0-0.008 0-0.015 0.001-0.023l-0 0.001v-1.883c-0.005-0.107 0.016-0.208 0.064-0.304 0.053-0.075 0.139-0.124 0.236-0.124 0.009 0 0.018 0 0.026 0.001l-0.001-0c0.043 0 0.091 0.011 0.128 0.027 0.043 0.021 0.080 0.053 0.107 0.091 0.059 0.075 0.091 0.171 0.085 0.267v0.176h0.523v-0.203c0.005-0.123-0.016-0.245-0.064-0.357-0.037-0.107-0.096-0.203-0.176-0.283zM22.197 24.085c-0.165-0.139-0.379-0.219-0.597-0.219-0.112 0-0.219 0.016-0.32 0.053s-0.197 0.096-0.277 0.165c-0.085 0.080-0.16 0.176-0.203 0.288-0.053 0.123-0.080 0.256-0.080 0.389v1.941c-0.005 0.139 0.021 0.272 0.080 0.395 0.048 0.107 0.117 0.197 0.203 0.272 0.080 0.075 0.176 0.133 0.277 0.171s0.208 0.059 0.32 0.059c0.23-0.002 0.439-0.089 0.598-0.23l-0.001 0.001c0.085-0.075 0.155-0.165 0.203-0.272 0.053-0.123 0.080-0.256 0.075-0.395v-1.941c0-0.009 0.001-0.020 0.001-0.031 0-0.254-0.107-0.483-0.277-0.646l-0-0zM21.952 26.704c0.005 0.053 0 0.101-0.021 0.155-0.016 0.048-0.048 0.091-0.085 0.128-0.069 0.059-0.155 0.091-0.245 0.091s-0.181-0.032-0.251-0.091c-0.035-0.036-0.064-0.078-0.084-0.125l-0.001-0.003c-0.014-0.038-0.022-0.083-0.022-0.129 0-0.009 0-0.018 0.001-0.027l-0 0.001v-1.941c-0.005-0.053 0.005-0.101 0.021-0.155 0.021-0.048 0.048-0.091 0.085-0.128 0.069-0.059 0.16-0.091 0.251-0.091s0.176 0.032 0.245 0.091c0.037 0.037 0.069 0.080 0.085 0.128 0.021 0.053 0.027 0.101 0.021 0.155v1.941zM26.325 27.568v-3.669h-0.507l-0.667 1.941h-0.011l-0.672-1.941h-0.507v3.669h0.528v-2.235h0.005l0.517 1.584h0.261l0.517-1.584h0.011v2.235h0.523zM29.307 24.155c-0.080-0.091-0.181-0.16-0.293-0.203-0.123-0.037-0.251-0.059-0.384-0.053h-0.779v3.669h0.523v-1.435h0.272c0.16 0.011 0.325-0.027 0.469-0.096 0.123-0.069 0.219-0.165 0.288-0.283 0.064-0.096 0.101-0.208 0.123-0.32 0.021-0.139 0.027-0.277 0.027-0.416 0.005-0.176-0.011-0.357-0.053-0.528-0.032-0.128-0.101-0.24-0.192-0.336zM29.040 25.275c-0.005 0.064-0.021 0.133-0.048 0.192-0.032 0.053-0.080 0.101-0.139 0.128-0.075 0.032-0.16 0.048-0.245 0.048h-0.24v-1.253h0.272c0.080 0 0.16 0.016 0.235 0.048 0.053 0.032 0.096 0.080 0.123 0.133 0.027 0.069 0.043 0.139 0.048 0.208v0.245c0 0.085 0.005 0.171 0 0.251h-0.005zM31.787 23.899h-0.427l-0.811 3.669h0.523l0.155-0.789h0.715l0.155 0.789h0.523l-0.832-3.669zM31.307 26.283l0.256-1.333h0.011l0.256 1.333h-0.523zM35.168 26.112h-0.005l-0.795-2.213h-0.501v3.669h0.523v-2.208h0.011l0.8 2.208h0.496v-3.669h-0.528v2.213zM38.368 23.899l-0.421 1.456h-0.011l-0.421-1.456h-0.555l0.72 2.117v1.552h0.523v-1.552l0.72-2.117h-0.555zM17.6 28.608h0.251v0.709h0.171v-0.709h0.251v-0.144h-0.672v0.144zM19.717 28.464l-0.331 0.853h0.181l0.075-0.197h0.336l0.075 0.197h0.187l-0.341-0.853h-0.181zM19.691 28.976l0.117-0.315 0.117 0.315h-0.235zM21.813 29.003h0.197v0.107c-0.059 0.048-0.128 0.075-0.203 0.075-0.032 0-0.069-0.005-0.101-0.021-0.032-0.013-0.059-0.033-0.080-0.058l-0-0c-0.040-0.063-0.064-0.14-0.064-0.223 0-0 0-0.001 0-0.001v0c0-0.192 0.085-0.288 0.251-0.288 0.043 0 0.085 0.011 0.117 0.032 0.037 0.027 0.064 0.064 0.075 0.107l0.165-0.032c-0.032-0.171-0.155-0.251-0.357-0.251-0.005-0-0.010-0-0.015-0-0.109 0-0.208 0.041-0.284 0.107l0-0c-0.043 0.043-0.080 0.096-0.101 0.155-0.021 0.053-0.027 0.117-0.021 0.176-0.005 0.117 0.032 0.229 0.107 0.32 0.043 0.043 0.091 0.075 0.149 0.096 0.053 0.021 0.117 0.032 0.176 0.027 0.133 0.005 0.261-0.043 0.363-0.133v-0.336h-0.373v0.144zM23.957 28.464h-0.176v0.853h0.597v-0.144h-0.421v-0.709z"></path>
<path fill="#afb1b8" style="fill: var(--color4, #afb1b8)" d="M25.595 28.464h0.171v0.853h-0.171v-0.853z"></path>
<path fill="#afb1b8" style="fill: var(--color4, #afb1b8)" d="M27.536 29.035l-0.347-0.571h-0.171v0.853h0.16v-0.56l0.347 0.56h0.171v-0.853h-0.16v0.571zM29.136 28.939h0.427v-0.144h-0.427v-0.187h0.459v-0.144h-0.629v0.853h0.645v-0.144h-0.475v-0.235zM33.019 28.8h-0.336v-0.336h-0.171v0.853h0.171v-0.373h0.336v0.373h0.171v-0.853h-0.171v0.336zM34.629 28.939h0.421v-0.144h-0.421v-0.187h0.459v-0.144h-0.635v0.853h0.651v-0.144h-0.475v-0.235zM36.811 28.939c0.149-0.021 0.224-0.101 0.224-0.235 0.001-0.008 0.002-0.018 0.002-0.028 0-0.029-0.007-0.056-0.019-0.080l0 0.001c-0.016-0.035-0.039-0.063-0.069-0.085l-0.001-0c-0.063-0.031-0.138-0.049-0.217-0.049-0.012 0-0.024 0-0.035 0.001l0.002-0h-0.357v0.853h0.171v-0.357h0.032c0.037-0.005 0.075 0.005 0.107 0.016 0.027 0.016 0.048 0.037 0.059 0.064l0.187 0.272h0.208l-0.107-0.165c-0.043-0.085-0.112-0.155-0.187-0.208zM36.635 28.821h-0.123v-0.213h0.133c0.059-0.005 0.117 0 0.176 0.021 0.011 0.011 0.021 0.021 0.027 0.037s0.011 0.032 0.011 0.048c-0.005 0.021-0.005 0.037-0.016 0.048-0.005 0.016-0.016 0.027-0.032 0.037-0.053 0.021-0.117 0.027-0.176 0.021zM38.453 28.939h0.427v-0.144h-0.427v-0.187h0.459v-0.144h-0.629v0.853h0.651v-0.144h-0.48v-0.235z"></path>
</symbol>
<symbol id="icon-yaco" viewBox="0 0 57 32">
<path fill="#afb1b8" style="fill: var(--color4, #afb1b8)" d="M20.267 3.733l3.738 3.538-6.938-0.004v17.167h18.133v-6.564l3.733 3.534v-17.671h-18.667zM35.036 7.423v10.032l-10.597-10.032h10.597zM31.746 21.923h-11.81v-11.546h0.835v10.764h10.975v0.781zM25.531 27.707c-0.045 0.067-0.071 0.149-0.071 0.238 0 0.001 0 0.002 0 0.003v-0c0 0.16 0.056 0.29 0.168 0.389s0.263 0.149 0.45 0.149q0.211 0 0.378-0.085 0.055-0.029 0.107-0.067l0.107 0.126h0.367l-0.278-0.33q0.164-0.224 0.164-0.574h-0.275c0 0.127-0.027 0.243-0.079 0.347l-0.366-0.432 0.129-0.094c0.078-0.053 0.144-0.119 0.195-0.195l0.002-0.003c0.038-0.062 0.060-0.136 0.060-0.216 0-0.001 0-0.002 0-0.003v0q0-0.090-0.033-0.165t-0.1-0.135c-0.084-0.076-0.197-0.123-0.32-0.123-0.007 0-0.013 0-0.020 0l0.001-0c-0.153 0-0.274 0.044-0.364 0.13s-0.135 0.203-0.135 0.352c0 0.061 0.014 0.124 0.043 0.189 0.030 0.065 0.082 0.144 0.155 0.237-0.14 0.101-0.235 0.188-0.282 0.261zM29.132 28.316c0.13-0.114 0.205-0.272 0.224-0.474h-0.328c-0.018 0.135-0.059 0.232-0.124 0.29s-0.162 0.087-0.292 0.087c-0.141 0-0.249-0.054-0.323-0.162q-0.11-0.162-0.11-0.469v-0.167c0.002-0.203 0.041-0.355 0.117-0.46 0.077-0.105 0.188-0.157 0.331-0.157 0.123 0 0.217 0.030 0.28 0.091s0.104 0.158 0.12 0.294h0.328c-0.021-0.207-0.095-0.368-0.222-0.482s-0.297-0.171-0.506-0.171c-0.155 0-0.292 0.037-0.411 0.111-0.119 0.076-0.213 0.183-0.27 0.31l-0.002 0.005c-0.060 0.133-0.096 0.288-0.096 0.451 0 0.008 0 0.016 0 0.023l-0-0.001v0.177c0.003 0.174 0.035 0.327 0.098 0.46s0.151 0.234 0.266 0.306c0.116 0.071 0.249 0.107 0.4 0.107 0.216 0 0.389-0.056 0.519-0.169zM31.068 28.051c0.064-0.14 0.097-0.304 0.097-0.49v-0.105c0-0.006 0-0.013 0-0.020 0-0.169-0.036-0.329-0.102-0.473l0.003 0.007q-0.076-0.162-0.199-0.265-0.037-0.030-0.078-0.056c-0.119-0.075-0.255-0.112-0.41-0.112s-0.291 0.038-0.411 0.114q-0.032 0.020-0.062 0.043-0.134 0.107-0.215 0.281c-0.062 0.137-0.098 0.297-0.098 0.466 0 0.008 0 0.016 0 0.025l-0-0.001v0.107c0.001 0.181 0.034 0.341 0.099 0.48 0.066 0.139 0.159 0.246 0.279 0.322 0.121 0.075 0.258 0.112 0.411 0.112 0.156 0 0.293-0.037 0.412-0.112 0.119-0.076 0.212-0.183 0.276-0.323zM22.725 26.564l-0.436 0.899-0.436-0.899h-0.366l0.637 1.198v0.698h0.331v-0.698l0.635-1.198h-0.364zM23.274 28.46l0.154-0.442h0.734l0.155 0.442h0.344l-0.717-1.896h-0.296l-0.716 1.896h0.342zM26.047 27.287c-0.090-0.11-0.134-0.202-0.134-0.275 0-0.063 0.019-0.116 0.055-0.158 0.034-0.038 0.084-0.063 0.139-0.063 0.003 0 0.006 0 0.009 0h-0c0.002-0 0.004-0 0.007-0 0.052 0 0.1 0.020 0.135 0.054l-0-0c0.037 0.035 0.056 0.077 0.056 0.126 0 0.002 0 0.004 0 0.006 0 0.071-0.031 0.134-0.080 0.177l-0 0-0.041 0.033-0.145 0.099zM30.716 26.98c0.080 0.112 0.119 0.273 0.119 0.483v0.099c0 0.213-0.039 0.376-0.118 0.487-0.078 0.111-0.19 0.167-0.336 0.167-0.004 0-0.009 0-0.014 0-0.134 0-0.253-0.067-0.324-0.17l-0.001-0.001c-0.081-0.114-0.121-0.275-0.121-0.483v-0.109c0.002-0.204 0.043-0.362 0.122-0.473 0.071-0.102 0.188-0.168 0.321-0.168 0.005 0 0.010 0 0.014 0l-0.001-0c0.146 0 0.259 0.056 0.338 0.168zM23.794 26.966l0.275 0.787h-0.549l0.275-0.786zM26.387 28.127c-0.081 0.066-0.185 0.106-0.299 0.107h-0q-0.116 0-0.193-0.054-0.018-0.012-0.034-0.028c-0.052-0.052-0.085-0.123-0.085-0.203 0-0.004 0-0.007 0-0.011l-0 0.001c0-0.101 0.052-0.192 0.156-0.271l0.041-0.029 0.414 0.489z"></path>
</symbol>
</defs>
</svg>
